<svg id="SvgjsSvg1305" width="712" height="901.0000419616699" xmlns="http://www.w3.org/2000/svg" version="1.1" xmlns:xlink="http://www.w3.org/1999/xlink" xmlns:svgjs="http://svgjs.com/svgjs"><defs id="SvgjsDefs1306"><marker id="SvgjsMarker1326" markerWidth="14" markerHeight="10" refX="10" refY="5" viewBox="0 0 14 10" orient="auto" markerUnits="userSpaceOnUse" stroke-dasharray="0,0"><path id="SvgjsPath1327" d="M0,0 L14,5 L0,10 L0,0" fill="#323232" stroke="#323232" stroke-width="1"></path></marker><marker id="SvgjsMarker1338" markerWidth="14" markerHeight="10" refX="10" refY="5" viewBox="0 0 14 10" orient="auto" markerUnits="userSpaceOnUse" stroke-dasharray="0,0"><path id="SvgjsPath1339" d="M0,0 L14,5 L0,10 L0,0" fill="#323232" stroke="#323232" stroke-width="1"></path></marker><marker id="SvgjsMarker1360" markerWidth="14" markerHeight="10" refX="10" refY="5" viewBox="0 0 14 10" orient="auto" markerUnits="userSpaceOnUse" stroke-dasharray="0,0"><path id="SvgjsPath1361" d="M0,0 L14,5 L0,10 L0,0" fill="#323232" stroke="#323232" stroke-width="1"></path></marker><marker id="SvgjsMarker1364" markerWidth="14" markerHeight="10" refX="10" refY="5" viewBox="0 0 14 10" orient="auto" markerUnits="userSpaceOnUse" stroke-dasharray="0,0"><path id="SvgjsPath1365" d="M0,0 L14,5 L0,10 L0,0" fill="#323232" stroke="#323232" stroke-width="1"></path></marker><marker id="SvgjsMarker1374" markerWidth="14" markerHeight="10" refX="10" refY="5" viewBox="0 0 14 10" orient="auto" markerUnits="userSpaceOnUse" stroke-dasharray="0,0"><path id="SvgjsPath1375" d="M0,0 L14,5 L0,10 L0,0" fill="#323232" stroke="#323232" stroke-width="1"></path></marker><marker id="SvgjsMarker1384" markerWidth="14" markerHeight="10" refX="10" refY="5" viewBox="0 0 14 10" orient="auto" markerUnits="userSpaceOnUse" stroke-dasharray="0,0"><path id="SvgjsPath1385" d="M0,0 L14,5 L0,10 L0,0" fill="#323232" stroke="#323232" stroke-width="1"></path></marker><marker id="SvgjsMarker1396" markerWidth="14" markerHeight="10" refX="10" refY="5" viewBox="0 0 14 10" orient="auto" markerUnits="userSpaceOnUse" stroke-dasharray="0,0"><path id="SvgjsPath1397" d="M0,0 L14,5 L0,10 L0,0" fill="#323232" stroke="#323232" stroke-width="1"></path></marker><marker id="SvgjsMarker1418" markerWidth="14" markerHeight="10" refX="10" refY="5" viewBox="0 0 14 10" orient="auto" markerUnits="userSpaceOnUse" stroke-dasharray="0,0"><path id="SvgjsPath1419" d="M0,0 L14,5 L0,10 L0,0" fill="#323232" stroke="#323232" stroke-width="1"></path></marker><marker id="SvgjsMarker1422" markerWidth="14" markerHeight="10" refX="10" refY="5" viewBox="0 0 14 10" orient="auto" markerUnits="userSpaceOnUse" stroke-dasharray="0,0"><path id="SvgjsPath1423" d="M0,0 L14,5 L0,10 L0,0" fill="#323232" stroke="#323232" stroke-width="1"></path></marker><marker id="SvgjsMarker1432" markerWidth="14" markerHeight="10" refX="10" refY="5" viewBox="0 0 14 10" orient="auto" markerUnits="userSpaceOnUse" stroke-dasharray="0,0"><path id="SvgjsPath1433" d="M0,0 L14,5 L0,10 L0,0" fill="#323232" stroke="#323232" stroke-width="1"></path></marker><marker id="SvgjsMarker1436" markerWidth="14" markerHeight="10" refX="10" refY="5" viewBox="0 0 14 10" orient="auto" markerUnits="userSpaceOnUse" stroke-dasharray="0,0"><path id="SvgjsPath1437" d="M0,0 L14,5 L0,10 L0,0" fill="#323232" stroke="#323232" stroke-width="1"></path></marker><marker id="SvgjsMarker1440" markerWidth="14" markerHeight="10" refX="10" refY="5" viewBox="0 0 14 10" orient="auto" markerUnits="userSpaceOnUse" stroke-dasharray="0,0"><path id="SvgjsPath1441" d="M0,0 L14,5 L0,10 L0,0" fill="#323232" stroke="#323232" stroke-width="1"></path></marker><marker id="SvgjsMarker1444" markerWidth="14" markerHeight="10" refX="10" refY="5" viewBox="0 0 14 10" orient="auto" markerUnits="userSpaceOnUse" stroke-dasharray="0,0"><path id="SvgjsPath1445" d="M0,0 L14,5 L0,10 L0,0" fill="#323232" stroke="#323232" stroke-width="1"></path></marker><marker id="SvgjsMarker1458" markerWidth="14" markerHeight="10" refX="10" refY="5" viewBox="0 0 14 10" orient="auto" markerUnits="userSpaceOnUse" stroke-dasharray="0,0"><path id="SvgjsPath1459" d="M0,0 L14,5 L0,10 L0,0" fill="#323232" stroke="#323232" stroke-width="1"></path></marker><marker id="SvgjsMarker1474" markerWidth="14" markerHeight="10" refX="10" refY="5" viewBox="0 0 14 10" orient="auto" markerUnits="userSpaceOnUse" stroke-dasharray="0,0"><path id="SvgjsPath1475" d="M0,0 L14,5 L0,10 L0,0" fill="#323232" stroke="#323232" stroke-width="1"></path></marker><marker id="SvgjsMarker1478" markerWidth="14" markerHeight="10" refX="10" refY="5" viewBox="0 0 14 10" orient="auto" markerUnits="userSpaceOnUse" stroke-dasharray="0,0"><path id="SvgjsPath1479" d="M0,0 L14,5 L0,10 L0,0" fill="#323232" stroke="#323232" stroke-width="1"></path></marker><marker id="SvgjsMarker1488" markerWidth="14" markerHeight="10" refX="10" refY="5" viewBox="0 0 14 10" orient="auto" markerUnits="userSpaceOnUse" stroke-dasharray="0,0"><path id="SvgjsPath1489" d="M0,0 L14,5 L0,10 L0,0" fill="#323232" stroke="#323232" stroke-width="1"></path></marker><marker id="SvgjsMarker1492" markerWidth="14" markerHeight="10" refX="10" refY="5" viewBox="0 0 14 10" orient="auto" markerUnits="userSpaceOnUse" stroke-dasharray="0,0"><path id="SvgjsPath1493" d="M0,0 L14,5 L0,10 L0,0" fill="#323232" stroke="#323232" stroke-width="1"></path></marker><marker id="SvgjsMarker1508" markerWidth="14" markerHeight="10" refX="10" refY="5" viewBox="0 0 14 10" orient="auto" markerUnits="userSpaceOnUse" stroke-dasharray="0,0"><path id="SvgjsPath1509" d="M0,0 L14,5 L0,10 L0,0" fill="#323232" stroke="#323232" stroke-width="1"></path></marker><marker id="SvgjsMarker1512" markerWidth="14" markerHeight="10" refX="10" refY="5" viewBox="0 0 14 10" orient="auto" markerUnits="userSpaceOnUse" stroke-dasharray="0,0"><path id="SvgjsPath1513" d="M0,0 L14,5 L0,10 L0,0" fill="#323232" stroke="#323232" stroke-width="1"></path></marker><marker id="SvgjsMarker1516" markerWidth="14" markerHeight="10" refX="10" refY="5" viewBox="0 0 14 10" orient="auto" markerUnits="userSpaceOnUse" stroke-dasharray="0,0"><path id="SvgjsPath1517" d="M0,0 L14,5 L0,10 L0,0" fill="#323232" stroke="#323232" stroke-width="1"></path></marker><marker id="SvgjsMarker1526" markerWidth="14" markerHeight="10" refX="10" refY="5" viewBox="0 0 14 10" orient="auto" markerUnits="userSpaceOnUse" stroke-dasharray="0,0"><path id="SvgjsPath1527" d="M0,0 L14,5 L0,10 L0,0" fill="#323232" stroke="#323232" stroke-width="1"></path></marker></defs><g id="SvgjsG1307" transform="translate(284.10414123535156,77.5)"><path id="SvgjsPath1308" d="M 0 0L 104 0L 104 36L 0 36Z" stroke="rgba(33,41,48,1)" stroke-width="2" fill-opacity="1" fill="#ffffff"></path><g id="SvgjsG1309"><text id="SvgjsText1310" font-family="微软雅黑" text-anchor="middle" font-size="13px" width="84px" fill="#323232" font-weight="400" align="middle" lineHeight="125%" anchor="middle" family="微软雅黑" size="13px" weight="400" font-style="" opacity="1" y="7.375" transform="rotate(0)"><tspan id="SvgjsTspan1311" dy="16" x="52"><tspan id="SvgjsTspan1312" style="text-decoration:;">货品上传</tspan></tspan></text></g></g><g id="SvgjsG1313" transform="translate(240,25)"><path id="SvgjsPath1314" d="M 0 0L 293 0L 309 16L 309 40L 0 40L 0 0Z" stroke="none" fill-opacity="1" fill="#fff7bc"></path><path id="SvgjsPath1315" d="M 293 0L 293 16L 309 16Z" stroke="none" fill-opacity="1" fill="#e4d089"></path><path id="SvgjsPath1316" d="M 0 0L 293 0L 309 16L 309 40L 0 40L 0 0Z" stroke="none" fill="none"></path><g id="SvgjsG1317"><text id="SvgjsText1318" font-family="微软雅黑" text-anchor="middle" font-size="13px" width="289px" fill="#323232" font-weight="400" align="middle" lineHeight="125%" anchor="middle" family="微软雅黑" size="13px" weight="400" font-style="" opacity="1" y="0.875" transform="rotate(0)"><tspan id="SvgjsTspan1319" dy="16" x="154.5"><tspan id="SvgjsTspan1320" style="text-decoration:;">API:</tspan><tspan id="SvgjsTspan1321" style="text-decoration:;fill: rgb(33, 33, 33);">/api/redbook/newproductInfo/upload</tspan></tspan><tspan id="SvgjsTspan1322" dy="16" x="154.5"><tspan id="SvgjsTspan1323" style="text-decoration:;fill: rgb(33, 33, 33);">前端: 限制.xlsx / .xls</tspan></tspan></text></g></g><g id="SvgjsG1324"><path id="SvgjsPath1325" d="M336.10414123535156 114.5L336.10414123535156 128.75L336.10414123535156 128.75L336.10414123535156 140.4" stroke="#323232" stroke-width="2" fill="none" marker-end="url(#SvgjsMarker1326)"></path></g><g id="SvgjsG1328" transform="translate(278.60414123535156,144)"><path id="SvgjsPath1329" d="M 0 0L 115 0L 115 39L 0 39Z" stroke="rgba(33,41,48,1)" stroke-width="2" fill-opacity="1" fill="#ffffff"></path><g id="SvgjsG1330"><text id="SvgjsText1331" font-family="微软雅黑" text-anchor="middle" font-size="13px" width="95px" fill="#323232" font-weight="400" align="middle" lineHeight="125%" anchor="middle" family="微软雅黑" size="13px" weight="400" font-style="" opacity="1" y="0.375" transform="rotate(0)"><tspan id="SvgjsTspan1332" dy="16" x="57.5"><tspan id="SvgjsTspan1333" style="text-decoration:;">EasyExcel读取</tspan></tspan><tspan id="SvgjsTspan1334" dy="16" x="57.5"><tspan id="SvgjsTspan1335" style="text-decoration:;">inputStream</tspan></tspan></text></g></g><g id="SvgjsG1336"><path id="SvgjsPath1337" d="M336.10414123535156 184L336.10414123535156 211L173 211L173 235.4" stroke="#323232" stroke-width="2" fill="none" marker-end="url(#SvgjsMarker1338)"></path></g><g id="SvgjsG1340" transform="translate(103.5,239)"><path id="SvgjsPath1341" d="M 0 0L 139 0L 139 50L 0 50Z" stroke="rgba(33,41,48,1)" stroke-width="2" fill-opacity="1" fill="#ffffff"></path><g id="SvgjsG1342"><text id="SvgjsText1343" font-family="微软雅黑" text-anchor="middle" font-size="13px" width="119px" fill="#323232" font-weight="400" align="middle" lineHeight="125%" anchor="middle" family="微软雅黑" size="13px" weight="400" font-style="" opacity="1" y="-2.125" transform="rotate(0)"><tspan id="SvgjsTspan1344" dy="16" x="69.5"><tspan id="SvgjsTspan1345" style="text-decoration:;">同时填写了</tspan></tspan><tspan id="SvgjsTspan1346" dy="16" x="69.5"><tspan id="SvgjsTspan1347" style="text-decoration:;">ActivityCode和</tspan></tspan><tspan id="SvgjsTspan1348" dy="16" x="69.5"><tspan id="SvgjsTspan1349" style="text-decoration:;">ProductCode</tspan></tspan></text></g></g><g id="SvgjsG1350" transform="translate(440,239)"><path id="SvgjsPath1351" d="M 0 0L 139 0L 139 50L 0 50Z" stroke="rgba(33,41,48,1)" stroke-width="2" fill-opacity="1" fill="#ffffff"></path><g id="SvgjsG1352"><text id="SvgjsText1353" font-family="微软雅黑" text-anchor="middle" font-size="13px" width="119px" fill="#323232" font-weight="400" align="middle" lineHeight="125%" anchor="middle" family="微软雅黑" size="13px" weight="400" font-style="" opacity="1" y="5.875" transform="rotate(0)"><tspan id="SvgjsTspan1354" dy="16" x="69.5"><tspan id="SvgjsTspan1355" style="text-decoration:;">只填写了</tspan></tspan><tspan id="SvgjsTspan1356" dy="16" x="69.5"><tspan id="SvgjsTspan1357" style="text-decoration:;">ProductCode</tspan></tspan></text></g></g><g id="SvgjsG1358"><path id="SvgjsPath1359" d="M336.10414123535156 184L336.10414123535156 211L509.5 211L509.5 235.4" stroke="#323232" stroke-width="2" fill="none" marker-end="url(#SvgjsMarker1360)"></path></g><g id="SvgjsG1362"><path id="SvgjsPath1363" d="M173 290L173 306.5L173 306.5L173 320.4" stroke="#323232" stroke-width="2" fill="none" marker-end="url(#SvgjsMarker1364)"></path></g><g id="SvgjsG1366" transform="translate(125,324)"><path id="SvgjsPath1367" d="M 0 35L 48 0L 96 35L 48 70Z" stroke="rgba(33,41,48,1)" stroke-width="2" fill-opacity="1" fill="#ffffff"></path><g id="SvgjsG1368"><text id="SvgjsText1369" font-family="微软雅黑" text-anchor="middle" font-size="13px" width="76px" fill="#323232" font-weight="700" align="middle" lineHeight="125%" anchor="middle" family="微软雅黑" size="13px" weight="700" font-style="" opacity="1" y="24.725" transform="rotate(0)"><tspan id="SvgjsTspan1370" dy="16" x="48"><tspan id="SvgjsTspan1371" style="text-decoration:;">覆盖数据</tspan></tspan></text></g></g><g id="SvgjsG1372"><path id="SvgjsPath1373" d="M509.5 290L509.5 306.5L509.5 306.5L509.5 320.4" stroke="#323232" stroke-width="2" fill="none" marker-end="url(#SvgjsMarker1374)"></path></g><g id="SvgjsG1376" transform="translate(461.5,324)"><path id="SvgjsPath1377" d="M 0 35L 48 0L 96 35L 48 70Z" stroke="rgba(33,41,48,1)" stroke-width="2" fill-opacity="1" fill="#ffffff"></path><g id="SvgjsG1378"><text id="SvgjsText1379" font-family="微软雅黑" text-anchor="middle" font-size="13px" width="76px" fill="#323232" font-weight="700" align="middle" lineHeight="125%" anchor="middle" family="微软雅黑" size="13px" weight="700" font-style="" opacity="1" y="24.725" transform="rotate(0)"><tspan id="SvgjsTspan1380" dy="16" x="48"><tspan id="SvgjsTspan1381" style="text-decoration:;">新增数据</tspan></tspan></text></g></g><g id="SvgjsG1382"><path id="SvgjsPath1383" d="M509.5 395L509.5 411.5L509.5 411.5L509.5 425.4" stroke="#323232" stroke-width="2" fill="none" marker-end="url(#SvgjsMarker1384)"></path></g><g id="SvgjsG1386" transform="translate(461.5,429)"><path id="SvgjsPath1387" d="M 0 0L 96 0L 96 54L 0 54Z" stroke="rgba(33,41,48,1)" stroke-width="2" fill-opacity="1" fill="#ffffff"></path><g id="SvgjsG1388"><text id="SvgjsText1389" font-family="微软雅黑" text-anchor="middle" font-size="13px" width="76px" fill="#323232" font-weight="400" align="middle" lineHeight="125%" anchor="middle" family="微软雅黑" size="13px" weight="400" font-style="" opacity="1" y="7.875" transform="rotate(0)"><tspan id="SvgjsTspan1390" dy="16" x="48"><tspan id="SvgjsTspan1391" style="text-decoration:;">ProductInfo</tspan></tspan><tspan id="SvgjsTspan1392" dy="16" x="48"><tspan id="SvgjsTspan1393" style="text-decoration:;">数据处理</tspan></tspan></text></g></g><g id="SvgjsG1394"><path id="SvgjsPath1395" d="M509.5 484L509.5 523.1666666269302L392 523.1666666269302L392 559.7333332538605" stroke="#323232" stroke-width="2" fill="none" marker-end="url(#SvgjsMarker1396)"></path></g><g id="SvgjsG1398" transform="translate(344,563.3333332538605)"><path id="SvgjsPath1399" d="M 0 0L 96 0L 96 54L 0 54Z" stroke="rgba(33,41,48,1)" stroke-width="2" fill-opacity="1" fill="#ffffff"></path><g id="SvgjsG1400"><text id="SvgjsText1401" font-family="微软雅黑" text-anchor="middle" font-size="13px" width="76px" fill="#323232" font-weight="400" align="middle" lineHeight="125%" anchor="middle" family="微软雅黑" size="13px" weight="400" font-style="" opacity="1" y="16.375" transform="rotate(0)"><tspan id="SvgjsTspan1402" dy="16" x="48"><tspan id="SvgjsTspan1403" style="text-decoration:;">Product</tspan></tspan></text></g></g><g id="SvgjsG1404" transform="translate(461.5,563.3333332538605)"><path id="SvgjsPath1405" d="M 0 0L 96 0L 96 54L 0 54Z" stroke="rgba(33,41,48,1)" stroke-width="2" fill-opacity="1" fill="#ffffff"></path><g id="SvgjsG1406"><text id="SvgjsText1407" font-family="微软雅黑" text-anchor="middle" font-size="13px" width="76px" fill="#323232" font-weight="400" align="middle" lineHeight="125%" anchor="middle" family="微软雅黑" size="13px" weight="400" font-style="" opacity="1" y="16.375" transform="rotate(0)"><tspan id="SvgjsTspan1408" dy="16" x="48"><tspan id="SvgjsTspan1409" style="text-decoration:;">Activity</tspan></tspan></text></g></g><g id="SvgjsG1410" transform="translate(591,563.3333332538605)"><path id="SvgjsPath1411" d="M 0 0L 96 0L 96 54L 0 54Z" stroke="rgba(33,41,48,1)" stroke-width="2" fill-opacity="1" fill="#ffffff"></path><g id="SvgjsG1412"><text id="SvgjsText1413" font-family="微软雅黑" text-anchor="middle" font-size="13px" width="76px" fill="#323232" font-weight="400" align="middle" lineHeight="125%" anchor="middle" family="微软雅黑" size="13px" weight="400" font-style="" opacity="1" y="16.375" transform="rotate(0)"><tspan id="SvgjsTspan1414" dy="16" x="48"><tspan id="SvgjsTspan1415" style="text-decoration:;">Aprelation</tspan></tspan></text></g></g><g id="SvgjsG1416"><path id="SvgjsPath1417" d="M509.5 484L509.5 523.1666666269302L509.5 523.1666666269302L509.5 559.7333332538605" stroke="#323232" stroke-width="2" fill="none" marker-end="url(#SvgjsMarker1418)"></path></g><g id="SvgjsG1420"><path id="SvgjsPath1421" d="M509.5 484L509.5 523.1666666269302L639 523.1666666269302L639 559.7333332538605" stroke="#323232" stroke-width="2" fill="none" marker-end="url(#SvgjsMarker1422)"></path></g><g id="SvgjsG1424" transform="translate(474.5,648)"><path id="SvgjsPath1425" d="M 0 35C 0 -11.666666666666666 70 -11.666666666666666 70 35C 70 81.66666666666667 0 81.66666666666667 0 35Z" stroke="rgba(33,41,48,1)" stroke-width="2" fill-opacity="1" fill="#ffffff"></path><g id="SvgjsG1426"><text id="SvgjsText1427" font-family="微软雅黑" text-anchor="middle" font-size="13px" width="50px" fill="#323232" font-weight="400" align="middle" lineHeight="125%" anchor="middle" family="微软雅黑" size="13px" weight="400" font-style="" opacity="1" y="24.375" transform="rotate(0)"><tspan id="SvgjsTspan1428" dy="16" x="35"><tspan id="SvgjsTspan1429" style="text-decoration:;font-weight: bold;fill: rgb(255, 0, 0);">DB</tspan></tspan></text></g></g><g id="SvgjsG1430"><path id="SvgjsPath1431" d="M392 618.3333332538605L392 683L470.9 683" stroke="#323232" stroke-width="2" fill="none" marker-end="url(#SvgjsMarker1432)"></path></g><g id="SvgjsG1434"><path id="SvgjsPath1435" d="M509.5 618.3333332538605L509.5 632.6666666269302L509.5 632.6666666269302L509.5 644.4" stroke="#323232" stroke-width="2" fill="none" marker-end="url(#SvgjsMarker1436)"></path></g><g id="SvgjsG1438"><path id="SvgjsPath1439" d="M639 618.3333332538605L639 683L548.1 683" stroke="#323232" stroke-width="2" fill="none" marker-end="url(#SvgjsMarker1440)"></path></g><g id="SvgjsG1442"><path id="SvgjsPath1443" d="M173 395L173 404L173 404L173 410.4" stroke="#323232" stroke-width="2" fill="none" marker-end="url(#SvgjsMarker1444)"></path></g><g id="SvgjsG1446" transform="translate(67.39585876464844,414)"><path id="SvgjsPath1447" d="M 0 0L 211.20828247070312 0L 211.20828247070312 58.50744381123337L 0 58.50744381123337Z" stroke="rgba(33,41,48,1)" stroke-width="2" fill-opacity="1" fill="#ffffff"></path><g id="SvgjsG1448"><text id="SvgjsText1449" font-family="微软雅黑" text-anchor="middle" font-size="13px" width="192px" fill="#323232" font-weight="400" align="middle" lineHeight="125%" anchor="middle" family="微软雅黑" size="13px" weight="400" font-style="" opacity="1" y="2.128721905616686" transform="rotate(0)"><tspan id="SvgjsTspan1450" dy="16" x="106"><tspan id="SvgjsTspan1451" style="text-decoration:;">遍历覆盖数据，根据</tspan></tspan><tspan id="SvgjsTspan1452" dy="16" x="106"><tspan id="SvgjsTspan1453" style="text-decoration:;">ActivityCode和ProductCode查</tspan></tspan><tspan id="SvgjsTspan1454" dy="16" x="106"><tspan id="SvgjsTspan1455" style="text-decoration:;">出来相关的活动、货品、query</tspan></tspan></text></g></g><g id="SvgjsG1456"><path id="SvgjsPath1457" d="M173 473.5074438112334L173 517.9203885325469L73 517.9203885325469L73 559.7333332538605" stroke="#323232" stroke-width="2" fill="none" marker-end="url(#SvgjsMarker1458)"></path></g><g id="SvgjsG1460" transform="translate(25,563.3333332538605)"><path id="SvgjsPath1461" d="M 0 0L 96 0L 96 54L 0 54Z" stroke="rgba(33,41,48,1)" stroke-width="2" fill-opacity="1" fill="#ffffff"></path><g id="SvgjsG1462"><text id="SvgjsText1463" font-family="微软雅黑" text-anchor="middle" font-size="13px" width="76px" fill="#323232" font-weight="400" align="middle" lineHeight="125%" anchor="middle" family="微软雅黑" size="13px" weight="400" font-style="" opacity="1" y="16.375" transform="rotate(0)"><tspan id="SvgjsTspan1464" dy="16" x="48"><tspan id="SvgjsTspan1465" style="text-decoration:;">Product</tspan></tspan></text></g></g><g id="SvgjsG1466" transform="translate(125,563.3333332538605)"><path id="SvgjsPath1467" d="M 0 0L 96 0L 96 54L 0 54Z" stroke="rgba(33,41,48,1)" stroke-width="2" fill-opacity="1" fill="#ffffff"></path><g id="SvgjsG1468"><text id="SvgjsText1469" font-family="微软雅黑" text-anchor="middle" font-size="13px" width="76px" fill="#323232" font-weight="400" align="middle" lineHeight="125%" anchor="middle" family="微软雅黑" size="13px" weight="400" font-style="" opacity="1" y="16.375" transform="rotate(0)"><tspan id="SvgjsTspan1470" dy="16" x="48"><tspan id="SvgjsTspan1471" style="text-decoration:;">Activity</tspan></tspan></text></g></g><g id="SvgjsG1472"><path id="SvgjsPath1473" d="M173 473.5074438112334L173 517.9203885325469L173 517.9203885325469L173 559.7333332538605" stroke="#323232" stroke-width="2" fill="none" marker-end="url(#SvgjsMarker1474)"></path></g><g id="SvgjsG1476"><path id="SvgjsPath1477" d="M73 618.3333332538605L73 653.6666666269302L173 653.6666666269302L173 686.4" stroke="#323232" stroke-width="2" fill="none" marker-end="url(#SvgjsMarker1478)"></path></g><g id="SvgjsG1480" transform="translate(125,690)"><path id="SvgjsPath1481" d="M 0 0L 96 0L 96 34L 0 34Z" stroke="rgba(33,41,48,1)" stroke-width="2" fill-opacity="1" fill="#ffffff"></path><g id="SvgjsG1482"><text id="SvgjsText1483" font-family="微软雅黑" text-anchor="middle" font-size="13px" width="76px" fill="#323232" font-weight="400" align="middle" lineHeight="125%" anchor="middle" family="微软雅黑" size="13px" weight="400" font-style="" opacity="1" y="6.375" transform="rotate(0)"><tspan id="SvgjsTspan1484" dy="16" x="48"><tspan id="SvgjsTspan1485" style="text-decoration:;">更新字段</tspan></tspan></text></g></g><g id="SvgjsG1486"><path id="SvgjsPath1487" d="M173 618.3333332538605L173 653.6666666269302L173 653.6666666269302L173 686.4" stroke="#323232" stroke-width="2" fill="none" marker-end="url(#SvgjsMarker1488)"></path></g><g id="SvgjsG1490"><path id="SvgjsPath1491" d="M509.5 719L509.5 737L509.5 737L509.5 752.4" stroke="#323232" stroke-width="2" fill="none" marker-end="url(#SvgjsMarker1492)"></path></g><g id="SvgjsG1494" transform="translate(461.5,756)"><path id="SvgjsPath1495" d="M 0 4Q 0 0 4 0L 92 0Q 96 0 96 4L 96 43Q 96 47 92 47L 4 47Q 0 47 0 43Z" stroke="rgba(33,41,48,1)" stroke-width="2" fill-opacity="1" fill="#ffffff"></path><g id="SvgjsG1496"><text id="SvgjsText1497" font-family="微软雅黑" text-anchor="middle" font-size="13px" width="76px" fill="#323232" font-weight="400" align="middle" lineHeight="125%" anchor="middle" family="微软雅黑" size="13px" weight="400" font-style="" opacity="1" y="12.875" transform="rotate(0)"><tspan id="SvgjsTspan1498" dy="16" x="48"><tspan id="SvgjsTspan1499" style="text-decoration:;">完成上传</tspan></tspan></text></g></g><g id="SvgjsG1500" transform="translate(234.5,563.3333332538605)"><path id="SvgjsPath1501" d="M 0 0L 96 0L 96 54L 0 54Z" stroke="rgba(33,41,48,1)" stroke-width="2" fill-opacity="1" fill="#ffffff"></path><g id="SvgjsG1502"><text id="SvgjsText1503" font-family="微软雅黑" text-anchor="middle" font-size="13px" width="76px" fill="#323232" font-weight="400" align="middle" lineHeight="125%" anchor="middle" family="微软雅黑" size="13px" weight="400" font-style="" opacity="1" y="16.375" transform="rotate(0)"><tspan id="SvgjsTspan1504" dy="16" x="48"><tspan id="SvgjsTspan1505" style="text-decoration:;">Query</tspan></tspan></text></g></g><g id="SvgjsG1506"><path id="SvgjsPath1507" d="M173 473.5074438112334L173 517.9203885325469L282.5 517.9203885325469L282.5 559.7333332538605" stroke="#323232" stroke-width="2" fill="none" marker-end="url(#SvgjsMarker1508)"></path></g><g id="SvgjsG1510"><path id="SvgjsPath1511" d="M282.5 618.3333332538605L282.5 653.6666666269302L173 653.6666666269302L173 686.4" stroke="#323232" stroke-width="2" fill="none" marker-end="url(#SvgjsMarker1512)"></path></g><g id="SvgjsG1514"><path id="SvgjsPath1515" d="M173 725L173 738.1666717529297L173 738.1666717529297L173 748.7333435058594" stroke="#323232" stroke-width="2" fill="none" marker-end="url(#SvgjsMarker1516)"></path></g><g id="SvgjsG1518" transform="translate(145.83334350585938,752.3333435058594)"><path id="SvgjsPath1519" d="M 0 27.166656494140625C 0 -9.055552164713541 54.33331298828125 -9.055552164713541 54.33331298828125 27.166656494140625C 54.33331298828125 63.38886515299479 0 63.38886515299479 0 27.166656494140625Z" stroke="rgba(33,41,48,1)" stroke-width="2" fill-opacity="1" fill="#ffffff"></path><g id="SvgjsG1520"><text id="SvgjsText1521" font-family="微软雅黑" text-anchor="middle" font-size="13px" width="35px" fill="#ff0000" font-weight="700" align="middle" lineHeight="125%" anchor="middle" family="微软雅黑" size="13px" weight="700" font-style="" opacity="1" y="16.541656494140625" transform="rotate(0)"><tspan id="SvgjsTspan1522" dy="16" x="27.5"><tspan id="SvgjsTspan1523" style="text-decoration:;">DB</tspan></tspan></text></g></g><g id="SvgjsG1524"><path id="SvgjsPath1525" d="M173 807.6666564941406L173 821.5972169240315L173 821.5972169240315L173 832.9277773539225" stroke="#323232" stroke-width="2" fill="none" marker-end="url(#SvgjsMarker1526)"></path></g><g id="SvgjsG1528" transform="translate(135.4166717529297,835)"><path id="SvgjsPath1529" d="M 0 4Q 0 0 4 0L 71.16665649414062 0Q 75.16665649414062 0 75.16665649414062 4L 75.16665649414062 37.2499885559082Q 75.16665649414062 41.2499885559082 71.16665649414062 41.2499885559082L 4 41.2499885559082Q 0 41.2499885559082 0 37.2499885559082Z" stroke="rgba(33,41,48,1)" stroke-width="2" fill-opacity="1" fill="#ffffff"></path><g id="SvgjsG1530"><text id="SvgjsText1531" font-family="微软雅黑" text-anchor="middle" font-size="13px" width="56px" fill="#323232" font-weight="400" align="middle" lineHeight="125%" anchor="middle" family="微软雅黑" size="13px" weight="400" font-style="" opacity="1" y="9.999994277954102" transform="rotate(0)"><tspan id="SvgjsTspan1532" dy="16" x="38"><tspan id="SvgjsTspan1533" style="text-decoration:;">完成上传</tspan></tspan></text></g></g></svg>